<svg width="24" height="24" viewBox="0 0 24 24" fill="none" xmlns="http://www.w3.org/2000/svg">
<path d="M22.3344 9.68822L22.3344 9.68822C22.6322 9.73331 22.8524 9.98957 22.852 10.2908M22.3344 9.68822L22.602 10.2904M22.3344 9.68822L19.6247 9.27818C19.4837 8.83462 19.3052 8.40226 19.0914 7.986L20.7164 5.78195L20.7164 5.78192C20.895 5.53955 20.8698 5.20302 20.6571 4.98992L20.657 4.98974L18.4506 2.78365L18.4505 2.78349C18.2376 2.57101 17.9011 2.54518 17.6585 2.724L17.6584 2.72401L15.4624 4.34287C15.0434 4.1255 14.6076 3.94414 14.1599 3.8008L13.7522 1.106L22.3344 9.68822ZM22.852 10.2908L22.602 10.2904M22.852 10.2908V10.2904H22.602M22.852 10.2908V13.4103C22.852 13.7116 22.6319 13.9674 22.3342 14.0125L22.3342 14.0125L19.6094 14.4249M22.602 10.2904V13.4103C22.602 13.5879 22.4722 13.7388 22.2968 13.7653L19.4175 14.2011M19.6094 14.4249C19.6257 14.3746 19.6414 14.3241 19.6568 14.2735L19.4175 14.2011M19.6094 14.4249L19.4549 14.4482L19.4175 14.2011M19.6094 14.4249C19.4678 14.8623 19.2902 15.2879 19.0783 15.6972M19.4175 14.2011C19.2585 14.7263 19.0462 15.235 18.7838 15.7191M18.7838 15.7191L18.985 15.5707L19.0783 15.6972M18.7838 15.7191L20.5149 18.0672M18.7838 15.7191L19.0036 15.8382C19.0289 15.7915 19.0538 15.7445 19.0783 15.6972M19.0783 15.6972L20.716 17.9186M20.5149 18.0672L20.716 17.9186M20.5149 18.0672C20.6205 18.2101 20.6054 18.4088 20.4799 18.5342M20.5149 18.0672L20.7161 17.9188L20.716 17.9186M20.716 17.9186C20.8952 18.1612 20.8695 18.4982 20.6567 18.711L20.4799 18.5342M20.4799 18.5342L20.6567 18.711L18.4504 20.9171L18.4502 20.9173C18.2373 21.1297 17.9009 21.1556 17.6582 20.9767L17.6582 20.9767L15.4284 19.333M20.4799 18.5342L15.4284 19.333M15.4284 19.333C15.4755 19.3088 15.5224 19.2842 15.5691 19.2592L15.4508 19.0389L15.3025 19.2401L15.4284 19.333ZM15.4284 19.333C15.0219 19.5414 14.5997 19.7162 14.1664 19.8553M15.4284 19.333L13.9426 19.663M14.1664 19.8553L14.1898 19.7004L13.9426 19.663M14.1664 19.8553C14.1159 19.8715 14.0652 19.8872 14.0145 19.9025L13.9426 19.663M14.1664 19.8553L13.7519 22.5947C13.7069 22.8927 13.451 23.1128 13.1497 23.1128H10.0298C9.72851 23.1128 9.47267 22.8927 9.42761 22.5948L9.6748 22.5574M13.9426 19.663L13.5047 22.5574C13.4782 22.7331 13.3274 22.8628 13.1497 22.8628H10.0298C9.8522 22.8628 9.70138 22.7331 9.6748 22.5574M9.6748 22.5574L9.42761 22.5947M9.6748 22.5574L9.23694 19.663C8.716 19.5067 8.21038 19.2974 7.72871 19.0389L9.42761 22.5947M9.42761 22.5947L9.01318 19.8553C8.57987 19.7162 8.15761 19.5414 7.75112 19.333M9.42761 22.5947L7.75112 19.333M7.75112 19.333L5.52134 20.9767L5.52132 20.9767C5.27909 21.1553 4.94218 21.1304 4.72915 20.9171L7.75112 19.333ZM18.7893 13.7864C18.8266 13.6492 18.9416 13.5468 19.0823 13.5255L21.884 13.1015V10.5993M18.7893 13.7864L5.19512 3.68654L7.45579 5.35302C7.57094 5.43777 7.72536 5.44638 7.84937 5.37432M18.7893 13.7864C18.6208 14.4077 18.3708 15.0062 18.0464 15.5656L18.7893 13.7864ZM21.884 10.5993L19.095 10.1774C18.9535 10.1559 18.8381 10.0527 18.8015 9.91433M21.884 10.5993L21.8467 10.8465L21.634 10.8143M21.884 10.5993H21.634V10.8143M18.8015 9.91433C18.6356 9.28806 18.3859 8.68285 18.0596 8.11547M18.8015 9.91433L18.5598 9.97835M18.8015 9.91433L18.5598 9.97831C18.5598 9.97832 18.5598 9.97834 18.5598 9.97835M18.0596 8.11547C17.9885 7.99194 17.9974 7.83801 18.0819 7.72333L19.7534 5.45596M18.0596 8.11547L17.8429 8.24018M18.0596 8.11547L17.8429 8.24011C17.8429 8.24013 17.8429 8.24016 17.8429 8.24018M19.7534 5.45596L17.9839 3.68654L15.7233 5.35302C15.6079 5.43777 15.4535 5.44662 15.3297 5.37432C14.7609 5.04395 14.1528 4.7909 13.5222 4.62212M19.7534 5.45596L19.5766 5.63274L19.4245 5.48069M19.7534 5.45596L19.5521 5.30761L19.4245 5.48069M13.5222 4.62212C13.3843 4.58526 13.2814 4.4701 13.2601 4.32886M13.5222 4.62212L13.4577 4.86364C14.0666 5.02664 14.6541 5.27107 15.2039 5.59035C15.4145 5.71327 15.6765 5.69758 15.8713 5.55451L15.8716 5.55425L17.9592 4.01536L19.4245 5.48069M13.5222 4.62212L13.4576 4.86362C13.2236 4.80104 13.049 4.60569 13.0129 4.36625L13.2601 4.32886M13.2601 4.32886L12.8406 1.55587M13.2601 4.32886L13.0129 4.36615L12.6256 1.80587M12.8406 1.55587H10.3384M12.8406 1.55587V1.80587H12.6256M12.8406 1.55587L12.5935 1.59326L12.6256 1.80587M10.3384 1.55587L9.91899 4.32886M10.3384 1.55587L10.5856 1.59326L10.5535 1.80587M10.3384 1.55587V1.80587H10.5535M9.91899 4.32886C9.89769 4.4701 9.79474 4.58526 9.65685 4.62212C9.02626 4.7909 8.41794 5.04395 7.84937 5.37432M9.91899 4.32886L10.1662 4.36615M9.91899 4.32886L10.1662 4.36625L10.1662 4.36615M7.84937 5.37432L7.97497 5.59048C7.97497 5.59048 7.97497 5.59048 7.97497 5.59048M7.84937 5.37432L7.97497 5.59048M3.75453 5.48069L5.21986 4.01536L7.30745 5.55425L7.3076 5.55437L3.75453 5.48069ZM3.75453 5.48069L5.29844 7.57499L5.29846 7.57502C5.44172 7.76941 5.45685 8.03047 5.33614 8.24018M3.75453 5.48069L1.29503 10.5993M7.97497 5.59048C8.52452 5.27116 9.11233 5.02667 9.72142 4.86364L7.97497 5.59048ZM5.33614 8.24018L5.11947 8.11547M5.33614 8.24018C5.33614 8.24018 5.33615 8.24018 5.33615 8.24017L5.11947 8.11547M5.33614 8.24018C5.02047 8.78867 4.77946 9.37349 4.61923 9.97835C4.55708 10.2131 4.36137 10.3885 4.12129 10.4246M5.11947 8.11547C5.19057 7.99194 5.18171 7.83801 5.09721 7.72333L5.11947 8.11547ZM4.12129 10.4246L4.08406 10.1774L4.12144 10.4246L4.12129 10.4246ZM4.12129 10.4246L1.54503 10.8143M1.54503 10.8143V10.5993H1.29503M1.54503 10.8143V12.8865M1.54503 10.8143L1.33242 10.8465L1.29503 10.5993M1.29503 10.5993L1.54503 12.8865M1.54503 12.8865L4.13416 13.2783C4.37269 13.3144 4.56766 13.4877 4.63102 13.7208L4.63105 13.721C4.79387 14.3211 5.03537 14.8997 5.34887 15.4402C5.47076 15.6502 5.456 15.9121 5.31244 16.1072L5.31232 16.1073L3.75453 18.2203L5.21985 19.6856L7.33976 18.1228L7.34007 18.1226C7.53425 17.9799 7.79506 17.9646 8.00453 18.085C8.54402 18.3949 9.11934 18.6331 9.71513 18.7929L9.71545 18.793C9.94878 18.8559 10.1233 19.051 10.1595 19.2903L10.5535 21.8951H12.6256L13.0196 19.2903C13.0196 19.2903 13.0196 19.2902 13.0196 19.2902C13.0558 19.0505 13.2305 18.8558 13.4636 18.793L13.4639 18.7929C14.0597 18.6331 14.6351 18.3949 15.1745 18.085C15.3842 17.9643 15.6448 17.9798 15.8391 18.1226L15.8393 18.1228L17.9592 19.6856L19.4245 18.2203L17.8668 16.1074C17.7226 15.912 17.7085 15.65 17.8302 15.4402C18.1437 14.8994 18.3852 14.3211 18.548 13.721L18.5481 13.7207C18.6114 13.4881 18.8062 13.3144 19.0449 13.2783L21.634 12.8865V10.8143M1.54503 12.8865L10.1662 4.36615M21.634 10.8143L19.0576 10.4246L19.0574 10.4246C18.8179 10.3881 18.6221 10.2134 18.5598 9.97835M18.5598 9.97835C18.3996 9.37357 18.1584 8.78874 17.8429 8.24018M17.8429 8.24018C17.7222 8.03047 17.7374 7.76941 17.8806 7.57502L17.8806 7.57499L19.4245 5.48069M12.6256 1.80587H10.5535M10.5535 1.80587L10.1662 4.36615M2.52306 18.711L4.72898 20.9169L13.15 0.837905H10.0301C9.85244 0.837905 9.70161 0.967661 9.67504 1.14338L9.42785 1.10598L9.42785 1.106L9.02015 3.8008C8.57241 3.94419 8.13657 4.1257 7.71768 4.34291L5.52158 2.72401L5.52156 2.724C5.27916 2.54534 4.94251 2.57054 4.72939 2.78366L2.5233 4.98975C2.31052 5.20253 2.2849 5.5394 2.46364 5.78192L2.46367 5.78195L4.08868 7.986C3.8748 8.40226 3.69631 8.83462 3.55537 9.27818L0.845639 9.68821C0.547735 9.73326 0.327545 9.9891 0.327545 10.2904V13.4103C0.327545 13.7116 0.547633 13.9674 0.845351 14.0125L0.845376 14.0125L3.57024 14.4249C3.71192 14.8623 3.88957 15.2879 4.10131 15.6972L2.46342 17.9188L2.4634 17.9188C2.28458 18.1615 2.31041 18.4979 2.52289 18.7108L2.52306 18.711Z" fill="black" stroke="black" stroke-width="0.5"/>
</svg>
